<?xml version="1.0" standalone="no"?><svg xmlns="http://www.w3.org/2000/svg" viewBox="0 0 1440 320"><path fill="#ff5500" fill-opacity="1" d="M0,288L20,256C40,224,80,160,120,160C160,160,200,224,240,245.3C280,267,320,245,360,234.7C400,224,440,224,480,218.7C520,213,560,203,600,202.7C640,203,680,213,720,202.7C760,192,800,160,840,160C880,160,920,192,960,192C1000,192,1040,160,1080,154.7C1120,149,1160,171,1200,170.7C1240,171,1280,149,1320,149.3C1360,149,1400,171,1420,181.3L1440,192L1440,0L1420,0C1400,0,1360,0,1320,0C1280,0,1240,0,1200,0C1160,0,1120,0,1080,0C1040,0,1000,0,960,0C920,0,880,0,840,0C800,0,760,0,720,0C680,0,640,0,600,0C560,0,520,0,480,0C440,0,400,0,360,0C320,0,280,0,240,0C200,0,160,0,120,0C80,0,40,0,20,0L0,0Z"></path></svg>